<?xml version="1.0" encoding="utf-8"?>
<!-- Generator: Adobe Illustrator 16.0.3, SVG Export Plug-In . SVG Version: 6.00 Build 0)  -->
<!DOCTYPE svg PUBLIC "-//W3C//DTD SVG 1.1//EN" "http://www.w3.org/Graphics/SVG/1.1/DTD/svg11.dtd">
<svg version="1.1" id="Layer_1" xmlns="http://www.w3.org/2000/svg" xmlns:xlink="http://www.w3.org/1999/xlink" x="0px" y="0px"
	 width="68.75px" height="24.875px" viewBox="0 0 68.75 24.875" enable-background="new 0 0 68.75 24.875" xml:space="preserve">
<g>
	<g>
		<path fill="#50677F" d="M49.215-9.269v-2.945c0.895,0.541,1.811,0.979,2.746,1.314c0.936,0.336,1.725,0.503,2.363,0.503
			c0.662,0,1.23-0.14,1.709-0.42c0.476-0.281,0.715-0.616,0.715-1.007c0-0.4-0.154-0.734-0.463-1
			c-0.309-0.265-0.975-0.648-1.996-1.149c-2.046-0.981-3.387-1.82-4.02-2.517c-0.636-0.697-0.951-1.455-0.951-2.276
			c0-1.062,0.479-1.928,1.438-2.599c0.959-0.671,2.194-1.007,3.706-1.007c1.569,0,3.181,0.381,4.83,1.142v2.704
			c-1.884-0.981-3.424-1.472-4.621-1.472c-0.614,0-1.112,0.113-1.489,0.338c-0.38,0.225-0.566,0.524-0.566,0.895
			c0,0.321,0.171,0.627,0.513,0.918c0.343,0.291,0.944,0.641,1.806,1.052l1.133,0.556c2.676,1.302,4.014,2.744,4.014,4.326
			c0,1.131-0.516,2.061-1.543,2.786c-1.029,0.726-2.354,1.089-3.969,1.089c-0.952,0-1.803-0.087-2.545-0.263
			C51.277-8.475,50.342-8.797,49.215-9.269z"/>
		<path fill="#50677F" d="M76.889-18.314v10.037h-3.19v-7.693c0-1.533-0.238-2.604-0.716-3.208
			c-0.478-0.606-1.309-0.909-2.494-0.909c-0.661,0-1.271,0.13-1.82,0.391c-0.555,0.261-1.186,0.721-1.895,1.382v10.037h-3.172V-22.1
			h3.172v1.818c1.617-1.392,3.197-2.088,4.744-2.088c2.033,0,3.608,0.832,4.727,2.494c1.695-1.683,3.47-2.524,5.316-2.524
			c1.56,0,2.84,0.491,3.847,1.473c1.006,0.982,1.509,2.479,1.509,4.493v8.159H83.74v-8.189c0-1.152-0.273-2.033-0.819-2.645
			c-0.547-0.611-1.331-0.917-2.354-0.917C79.253-20.027,78.025-19.456,76.889-18.314z"/>
		<path fill="#50677F" d="M92.913-27.915c0.522,0,0.971,0.155,1.343,0.466c0.372,0.311,0.559,0.691,0.559,1.142
			c0,0.441-0.187,0.821-0.559,1.142c-0.372,0.321-0.818,0.481-1.343,0.481c-0.488,0-0.919-0.163-1.29-0.488
			c-0.373-0.326-0.559-0.704-0.559-1.134c0-0.421,0.186-0.794,0.559-1.12C91.994-27.752,92.425-27.915,92.913-27.915z M91.344-22.1
			h3.174v13.823h-3.174V-22.1z"/>
		<path fill="#50677F" d="M99.173-29.268h3.175v20.991h-3.175V-29.268z"/>
		<path fill="#50677F" d="M120.604-14.948h-11.28c0.079,1.322,0.596,2.374,1.543,3.155c0.946,0.781,2.171,1.172,3.671,1.172
			c2.092,0,4.021-0.561,5.789-1.683v2.675c-0.979,0.561-1.944,0.961-2.903,1.202c-0.959,0.241-2.084,0.361-3.374,0.361
			c-1.77,0-3.195-0.315-4.29-0.947c-1.093-0.631-1.968-1.48-2.624-2.547s-0.984-2.301-0.984-3.704c0-2.104,0.69-3.814,2.076-5.131
			c1.383-1.317,3.178-1.976,5.387-1.976c2.129,0,3.824,0.641,5.093,1.923c1.267,1.282,1.899,3,1.899,5.153v0.347H120.604z
			 M109.391-16.586h8.073c-0.081-1.092-0.459-1.933-1.133-2.524c-0.675-0.591-1.581-0.886-2.722-0.886
			c-1.139,0-2.071,0.295-2.799,0.886C110.085-18.519,109.611-17.678,109.391-16.586z"/>
		<path fill="#50677F" d="M125.939-22.1v15.356c0,1.733-0.426,3.09-1.273,4.072c-0.85,0.981-2.012,1.473-3.486,1.473l-0.385-1.262
			c1.221-0.021,2.096-0.366,2.625-1.037c0.528-0.671,0.793-1.763,0.793-3.276V-22.1H125.939z"/>
		<path fill="#50677F" d="M144.389-15.699h-12.644c-0.035,0.24-0.052,0.48-0.052,0.721c0,1.542,0.639,2.85,1.918,3.921
			c1.277,1.072,2.789,1.608,4.533,1.608c2.033,0,4.021-0.686,5.963-2.059v1.668c-1.836,1.222-3.896,1.833-6.172,1.833
			c-2.313,0-4.228-0.691-5.737-2.074c-1.511-1.382-2.267-3.14-2.267-5.274c0-2.023,0.695-3.698,2.092-5.026
			c1.396-1.327,3.149-1.991,5.267-1.991c1.987,0,3.668,0.599,5.04,1.795C143.701-19.378,144.389-17.753,144.389-15.699z
			 M131.973-16.886h10.394c-0.604-2.695-2.298-4.042-5.074-4.042c-1.312,0-2.449,0.353-3.408,1.059
			C132.922-19.163,132.286-18.168,131.973-16.886z"/>
		<path fill="#50677F" d="M150.962-26.683v4.583h4.499v1.202h-4.499v8.219c0,1.322,0.125,2.191,0.375,2.607
			c0.249,0.416,0.921,0.624,2.015,0.624c0.836,0,1.812-0.226,2.931-0.676v1.413c-1.13,0.471-2.232,0.706-3.313,0.706
			c-1.058,0-1.939-0.261-2.648-0.781c-0.709-0.521-1.063-1.242-1.063-2.164v-9.947h-4.323V-22.1h4.323v-3.291l1.168-1.292H150.962z"
			/>
	</g>
	<polygon fill="#50677F" points="129.324,-22.677 128.807,-26.708 130.016,-28.032 128.305,-27.185 123.719,-28.102 132.518,-29.5 	
		"/>
</g>
<text transform="matrix(1.1605 0 0 1 177.21 7.1562)" font-family="'GillSans'" font-size="6.283">Gill sans</text>
<g>
	<g>
		<path fill="#304C66" d="M2.797,18.827c-0.633-0.279-1.135-0.657-1.504-1.134c-0.369-0.479-0.571-1.008-0.606-1.586h2.48
			c0.046,0.362,0.231,0.664,0.554,0.902c0.323,0.239,0.724,0.358,1.205,0.358c0.469,0,0.836-0.093,1.1-0.273
			c0.264-0.182,0.396-0.413,0.396-0.698c0-0.308-0.161-0.537-0.483-0.69c-0.323-0.154-0.836-0.321-1.539-0.503
			c-0.728-0.17-1.323-0.348-1.786-0.529c-0.463-0.182-0.862-0.46-1.196-0.835s-0.501-0.881-0.501-1.518c0-0.523,0.155-1,0.466-1.433
			c0.311-0.432,0.757-0.773,1.337-1.023C3.301,9.615,3.984,9.49,4.77,9.49c1.161,0,2.087,0.281,2.779,0.844
			c0.692,0.563,1.073,1.322,1.144,2.277h-2.36c-0.035-0.375-0.196-0.674-0.483-0.896c-0.288-0.222-0.672-0.333-1.152-0.333
			c-0.446,0-0.789,0.08-1.029,0.239c-0.24,0.16-0.36,0.381-0.36,0.666c0,0.318,0.164,0.56,0.492,0.725
			c0.328,0.165,0.839,0.333,1.53,0.504c0.704,0.17,1.284,0.346,1.742,0.528c0.457,0.183,0.853,0.463,1.188,0.845
			c0.334,0.381,0.507,0.883,0.519,1.51c0,0.545-0.155,1.035-0.466,1.468c-0.312,0.432-0.757,0.771-1.337,1.015
			c-0.581,0.245-1.258,0.367-2.032,0.367C4.146,19.244,3.431,19.105,2.797,18.827z"/>
		<path fill="#304C66" d="M25.323,10.571c0.733,0.711,1.1,1.703,1.1,2.977v5.543H23.96v-5.219c0-0.739-0.193-1.305-0.58-1.697
			c-0.388-0.393-0.915-0.588-1.584-0.588c-0.668,0-1.199,0.196-1.592,0.588c-0.394,0.392-0.589,0.958-0.589,1.697v5.219h-2.463
			v-5.219c0-0.739-0.194-1.305-0.581-1.697c-0.387-0.393-0.915-0.588-1.583-0.588c-0.681,0-1.217,0.196-1.61,0.588
			c-0.393,0.392-0.589,0.958-0.589,1.697v5.219h-2.463v-9.45h2.463v1.143c0.316-0.398,0.724-0.71,1.223-0.938
			c0.498-0.227,1.047-0.341,1.645-0.341c0.763,0,1.442,0.156,2.041,0.469c0.598,0.313,1.062,0.759,1.39,1.339
			c0.316-0.546,0.777-0.983,1.381-1.313s1.258-0.495,1.962-0.495C23.626,9.505,24.59,9.86,25.323,10.571z"/>
		<path fill="#304C66" d="M28.455,8.115c-0.287-0.267-0.431-0.6-0.431-0.998c0-0.398,0.144-0.73,0.431-0.998
			s0.648-0.401,1.082-0.401s0.794,0.134,1.082,0.401c0.287,0.267,0.431,0.6,0.431,0.998c0,0.398-0.144,0.731-0.431,0.998
			c-0.288,0.267-0.648,0.401-1.082,0.401S28.742,8.382,28.455,8.115z M30.751,9.641v9.45h-2.463v-9.45H30.751z"/>
		<path fill="#304C66" d="M35.166,6.469v12.622h-2.463V6.469H35.166z"/>
		<path fill="#304C66" d="M46.107,15.083h-7.125c0.06,0.683,0.307,1.217,0.74,1.603c0.434,0.389,0.967,0.58,1.601,0.58
			c0.915,0,1.565-0.381,1.952-1.143h2.656c-0.281,0.91-0.82,1.657-1.617,2.243c-0.799,0.586-1.777,0.878-2.938,0.878
			c-0.938,0-1.778-0.202-2.524-0.605c-0.744-0.402-1.324-0.975-1.74-1.714s-0.625-1.592-0.625-2.559
			c0-0.978,0.205-1.836,0.615-2.576c0.41-0.739,0.985-1.308,1.726-1.706c0.737-0.398,1.59-0.597,2.551-0.597
			c0.929,0,1.757,0.193,2.489,0.58c0.732,0.387,1.303,0.935,1.707,1.646c0.402,0.71,0.605,1.526,0.605,2.447
			C46.18,14.502,46.154,14.811,46.107,15.083z M43.628,13.479c-0.012-0.612-0.239-1.104-0.687-1.476
			c-0.445-0.369-0.99-0.554-1.637-0.554c-0.609,0-1.123,0.179-1.539,0.538c-0.416,0.358-0.673,0.855-0.766,1.492H43.628z"/>
		<path fill="#304C66" d="M49.961,20.643c0,1.047-0.268,1.799-0.801,2.26c-0.533,0.462-1.299,0.69-2.297,0.69h-1.09v-2.03h0.703
			c0.375,0,0.641-0.069,0.793-0.213c0.15-0.143,0.229-0.373,0.229-0.689V9.641h2.463V20.643z M47.646,8.115
			c-0.287-0.267-0.432-0.6-0.432-0.998c0-0.398,0.145-0.73,0.432-0.998s0.652-0.401,1.101-0.401c0.435,0,0.792,0.134,1.073,0.401
			c0.281,0.267,0.422,0.6,0.422,0.998c0,0.398-0.141,0.731-0.422,0.998c-0.281,0.267-0.641,0.401-1.073,0.401
			C48.301,8.516,47.936,8.382,47.646,8.115z"/>
		<path fill="#304C66" d="M60.902,15.083h-7.125c0.06,0.683,0.307,1.217,0.74,1.603c0.434,0.389,0.967,0.58,1.601,0.58
			c0.915,0,1.565-0.381,1.952-1.143h2.656c-0.281,0.91-0.82,1.657-1.617,2.243c-0.799,0.586-1.777,0.878-2.938,0.878
			c-0.938,0-1.778-0.202-2.524-0.605c-0.744-0.402-1.323-0.975-1.739-1.714s-0.625-1.592-0.625-2.559
			c0-0.978,0.204-1.836,0.614-2.576c0.41-0.739,0.985-1.308,1.726-1.706c0.737-0.398,1.59-0.597,2.551-0.597
			c0.929,0,1.759,0.193,2.489,0.58c0.732,0.387,1.303,0.935,1.707,1.646c0.402,0.71,0.605,1.526,0.605,2.447
			C60.975,14.502,60.95,14.811,60.902,15.083z M58.423,13.479c-0.012-0.612-0.239-1.104-0.687-1.476
			c-0.445-0.369-0.99-0.554-1.637-0.554c-0.608,0-1.123,0.179-1.539,0.538c-0.416,0.358-0.672,0.855-0.766,1.492H58.423z"/>
		<path fill="#304C66" d="M65.16,11.603v4.571c0,0.318,0.078,0.549,0.238,0.69c0.158,0.143,0.425,0.213,0.8,0.213h1.144v2.013
			h-1.548c-2.076,0-3.114-0.979-3.114-2.934v-4.554h-1.16V9.641h1.16V7.305h2.48v2.336h2.182v1.962H65.16z"/>
	</g>
	<g opacity="0.7">
		<path fill="#6398D1" d="M18.146,5.925c0.105,0.572-0.453,1.134-1.241,1.256l-3.928,0.606c-0.792,0.121-1.514-0.242-1.61-0.812
			L10.951,4.65c-0.103-0.572,0.455-1.134,1.245-1.256l3.928-0.606c0.786-0.121,1.508,0.241,1.613,0.812L18.146,5.925z"/>
		<path fill="#6398D1" d="M15.328,6.937l2.6,0.851c0.171,0.056,0.324-0.128,0.219-0.27L17.42,6.539
			c1.353-0.519-0.996,0.179-0.996,0.179"/>
	</g>
	<g opacity="0.7">
		<path fill="#B56BAB" d="M22.864,5.715C22.722,6.279,21.98,6.6,21.197,6.431l-3.876-0.838c-0.776-0.167-1.295-0.759-1.157-1.324
			l0.571-2.296c0.14-0.564,0.882-0.884,1.658-0.717l3.885,0.838c0.778,0.167,1.293,0.761,1.157,1.326L22.864,5.715z"/>
		<path fill="#B56BAB" d="M19.843,5.645l2.052,1.711c0.136,0.116,0.357-0.002,0.312-0.17L21.938,6.02
			c1.464,0.004-0.991-0.185-0.991-0.185"/>
	</g>
	<g opacity="0.8">
		<path fill="#6398D1" d="M97.432,16.568c0.205,1.121-0.889,2.222-2.432,2.459l-7.693,1.188c-1.551,0.237-2.965-0.475-3.154-1.591
			l-0.812-4.556c-0.199-1.119,0.893-2.219,2.438-2.458l7.693-1.188c1.538-0.237,2.952,0.472,3.158,1.591L97.432,16.568z"/>
		<path fill="#6398D1" d="M91.91,18.55l5.092,1.666c0.335,0.109,0.635-0.252,0.43-0.528l-1.424-1.916
			c2.648-1.017-1.951,0.352-1.951,0.352"/>
	</g>
	<g opacity="0.8">
		<path fill="#B56BAB" d="M106.671,16.157c-0.278,1.104-1.731,1.733-3.265,1.403l-7.592-1.643c-1.521-0.328-2.537-1.486-2.269-2.593
			l1.119-4.498c0.272-1.105,1.728-1.732,3.247-1.404l7.607,1.642c1.524,0.328,2.533,1.491,2.269,2.598L106.671,16.157z"/>
		<path fill="#B56BAB" d="M100.753,16.02l4.019,3.353c0.268,0.228,0.701-0.005,0.61-0.333l-0.524-2.284
			c2.867,0.011-1.939-0.36-1.939-0.36"/>
	</g>
</g>
</svg>
